<?xml version="1.0" encoding="UTF-8" standalone="no"?>
<!-- Created with Inkscape (http://www.inkscape.org/) -->
<svg
   xmlns:dc="http://purl.org/dc/elements/1.1/"
   xmlns:cc="http://web.resource.org/cc/"
   xmlns:rdf="http://www.w3.org/1999/02/22-rdf-syntax-ns#"
   xmlns:svg="http://www.w3.org/2000/svg"
   xmlns="http://www.w3.org/2000/svg"
   xmlns:sodipodi="http://sodipodi.sourceforge.net/DTD/sodipodi-0.dtd"
   xmlns:inkscape="http://www.inkscape.org/namespaces/inkscape"
   width="750"
   height="100"
   id="svg2"
   sodipodi:version="0.32"
   inkscape:version="0.44.1"
   version="1.0"
   sodipodi:docbase="/home/gary/projects/web/shiatsu"
   sodipodi:docname="page-head.svg"
   inkscape:export-filename="/home/gary/projects/web/shiatsu/page-head.png"
   inkscape:export-xdpi="90"
   inkscape:export-ydpi="90">
  <defs
     id="defs4" />
  <sodipodi:namedview
     id="base"
     pagecolor="#eee"
     bordercolor="#666666"
     borderopacity="1.0"
     gridtolerance="10000"
     guidetolerance="10"
     objecttolerance="10"
     inkscape:pageopacity="1"
     inkscape:pageshadow="2"
     inkscape:zoom="1"
     inkscape:cx="375"
     inkscape:cy="49.5"
     inkscape:document-units="px"
     inkscape:current-layer="layer2"
     width="750px"
     height="100px"
     inkscape:window-width="1590"
     inkscape:window-height="1146"
     inkscape:window-x="0"
     inkscape:window-y="25" />
  <metadata
     id="metadata7">
    <rdf:RDF>
      <cc:Work
         rdf:about="">
        <dc:format>image/svg+xml</dc:format>
        <dc:type
           rdf:resource="http://purl.org/dc/dcmitype/StillImage" />
      </cc:Work>
    </rdf:RDF>
  </metadata>
  <g
     inkscape:label="Green bar"
     inkscape:groupmode="layer"
     id="layer1"
     style="display:inline">
    <g
       id="g1910">
      <path
         transform="matrix(-1,0,0,1,778,-43.25)"
         d="M 48 133.25 A 10 10 0 1 1  28,133.25 A 10 10 0 1 1  48 133.25 z"
         sodipodi:ry="10"
         sodipodi:rx="10"
         sodipodi:cy="133.25"
         sodipodi:cx="38"
         id="path4546"
         style="fill:#5a9617;fill-opacity:1;stroke:black;stroke-width:0;stroke-linecap:butt;stroke-linejoin:bevel;stroke-miterlimit:4;stroke-dasharray:none;stroke-opacity:1"
         sodipodi:type="arc" />
      <rect
         y="0"
         x="0"
         height="90"
         width="750"
         id="rect1872"
         style="fill:#5a9617;fill-opacity:1;stroke:black;stroke-width:0;stroke-linecap:butt;stroke-linejoin:bevel;stroke-miterlimit:4;stroke-dasharray:none;stroke-opacity:1" />
      <path
         transform="translate(-28,-43.25)"
         d="M 48 133.25 A 10 10 0 1 1  28,133.25 A 10 10 0 1 1  48 133.25 z"
         sodipodi:ry="10"
         sodipodi:rx="10"
         sodipodi:cy="133.25"
         sodipodi:cx="38"
         id="path3651"
         style="fill:#5a9617;fill-opacity:1;stroke:black;stroke-width:0;stroke-linecap:butt;stroke-linejoin:bevel;stroke-miterlimit:4;stroke-dasharray:none;stroke-opacity:1"
         sodipodi:type="arc" />
      <rect
         y="85"
         x="10"
         height="15"
         width="730"
         id="rect1908"
         style="fill:#5a9617;fill-opacity:1;stroke:black;stroke-width:0;stroke-linecap:butt;stroke-linejoin:bevel;stroke-miterlimit:4;stroke-dasharray:none;stroke-opacity:1;display:inline" />
    </g>
  </g>
  <g
     inkscape:groupmode="layer"
     id="layer3"
     inkscape:label="Fading flowers"
     style="display:inline">
    <g
       style="display:inline;opacity:0.1"
       id="g7315"
       transform="translate(15.1811,98.0332)">
      <path
         sodipodi:nodetypes="cssc"
         id="path7317"
         d="M 310.50317,-28.488414 C 342.20408,-38.692926 385.78237,-38.358352 401.59101,-35.096252 C 417.14244,-31.887228 415.30857,-27.317401 400.00179,-22.800649 C 384.47293,-18.218363 350.81937,-12.763425 311.50689,-20.374988"
         style="fill:white;fill-rule:evenodd;stroke:black;stroke-width:0.25;stroke-linecap:butt;stroke-linejoin:miter;stroke-miterlimit:4;stroke-dasharray:none;stroke-opacity:1" />
      <path
         sodipodi:nodetypes="cssc"
         id="path7319"
         d="M 310.24947,-29.157183 C 342.12415,-41.859124 373.61753,-65.832562 384.94326,-79.245964 C 395.24681,-91.448757 393.36461,-93.812228 375.75633,-88.03347 C 358.91793,-82.507374 329.50209,-59.75368 318.83726,-50.486856 C 335.97289,-67.74232 349.79324,-86.755288 354.90597,-100.01643 C 360.0187,-113.27758 358.18131,-117.59144 344.68051,-107.12632 C 331.17971,-96.661202 319.35652,-77.887895 313.96419,-67.422777 C 320.55482,-84.278808 325.42789,-106.56712 326.30664,-118.15065 C 327.20709,-130.10213 325.21452,-141.58574 315.04265,-122.30474 C 309.69026,-112.15917 305.53617,-99.297455 301.06253,-76.010565 C 301.46196,-103.37166 300.74298,-116.95235 298.10673,-131.01236 C 295.38393,-145.53397 291.96827,-154.35266 287.7215,-133.96816 C 284.12661,-116.79258 284.92547,-94.184724 285.66863,-76.96545 C 281.48348,-93.623057 272.76576,-117.29853 266.34219,-128.03508 C 259.79268,-138.98211 256.51655,-136.55651 257.62447,-120.78561 C 258.71338,-105.28547 266.80101,-73.893497 273.63845,-57.921305 C 261.8383,-77.009145 248.01795,-93.62552 235.71544,-102.65268 C 223.10324,-111.90709 222.48984,-107.05159 227.88658,-95.702567 C 233.31885,-84.278808 258.00375,-54.640949 263.11648,-50.966175 C 246.89954,-64.387092 227.73517,-75.044955 213.82657,-80.204603 C 198.9677,-85.716765 192.89633,-83.959264 204.63963,-71.816528 C 214.85098,-61.257857 249.85534,-37.944689 265.55302,-32.83196 C 246.81966,-36.346961 209.52847,-38.614664 195.45269,-36.586619 C 174.13034,-33.525997 175.30556,-27.511951 190.41985,-23.325475 C 205.90375,-19.036621 232.4401,-15.336835 269.66717,-19.291211 C 243.6242,-12.061492 224.43256,-4.4104197 207.83509,6.472157 C 191.52998,17.163036 191.65095,21.771025 213.66679,18.135571 C 234.56187,14.672626 245.86102,8.7089766 271.10513,-4.6719999 C 252.57148,12.623409 236.749,31.395461 229.72396,46.495248 C 222.77385,61.434008 221.49024,74.301152 243.06499,53.525253 C 261.86351,35.422807 277.33627,12.223977 283.04815,2.2381759 C 273.4331,27.780066 268.10338,51.787485 268.02675,66.346324 C 267.9284,85.033133 272.04326,86.894667 280.71412,66.543022 C 287.04588,51.681534 286.51687,50.019937 291.72951,28.775967 C 293.17703,55.887155 294.75317,66.704314 298.61413,80.411085 C 302.82625,95.364504 308.04824,101.41224 311.3015,79.673213 C 313.98333,61.752675 306.79898,18.872105 301.67429,-0.61910492 C 310.96875,29.013408 322.03688,45.984536 334.89699,60.952871 C 347.79227,75.962131 351.6056,70.450509 345.43807,53.468694 C 337.74309,32.281139 320.87736,7.087968 312.33909,-3.5058112 C 332.57796,13.201793 357.04049,30.452463 372.42323,37.340855 C 388.87631,44.70855 397.19474,43.243859 379.9074,25.640263 C 364.60451,10.057436 324.56674,-11.991378 310.65252,-18.316024"
         style="fill:white;fill-rule:evenodd;stroke:black;stroke-width:0.25;stroke-linecap:butt;stroke-linejoin:miter;stroke-miterlimit:4;stroke-dasharray:none;stroke-opacity:1" />
      <path
         transform="matrix(0.201681,0,0,0.208614,164.7009,-162.4477)"
         d="M 727.98829 670.15741 A 85.045357 83.684631 0 1 1  557.89758,670.15741 A 85.045357 83.684631 0 1 1  727.98829 670.15741 z"
         sodipodi:ry="83.684631"
         sodipodi:rx="85.045357"
         sodipodi:cy="670.15741"
         sodipodi:cx="642.94293"
         id="path7321"
         style="fill:#fc0;fill-opacity:1;stroke:black;stroke-width:1.21880937;stroke-miterlimit:4;stroke-dasharray:none;stroke-opacity:1;display:inline"
         sodipodi:type="arc" />
    </g>
    <g
       style="display:inline;opacity:0.2"
       id="g7307"
       transform="translate(204.1811,120.0332)">
      <path
         sodipodi:nodetypes="cssc"
         id="path7309"
         d="M 310.50317,-28.488414 C 342.20408,-38.692926 385.78237,-38.358352 401.59101,-35.096252 C 417.14244,-31.887228 415.30857,-27.317401 400.00179,-22.800649 C 384.47293,-18.218363 350.81937,-12.763425 311.50689,-20.374988"
         style="fill:white;fill-rule:evenodd;stroke:black;stroke-width:0.25;stroke-linecap:butt;stroke-linejoin:miter;stroke-miterlimit:4;stroke-dasharray:none;stroke-opacity:1" />
      <path
         sodipodi:nodetypes="cssc"
         id="path7311"
         d="M 310.24947,-29.157183 C 342.12415,-41.859124 373.61753,-65.832562 384.94326,-79.245964 C 395.24681,-91.448757 393.36461,-93.812228 375.75633,-88.03347 C 358.91793,-82.507374 329.50209,-59.75368 318.83726,-50.486856 C 335.97289,-67.74232 349.79324,-86.755288 354.90597,-100.01643 C 360.0187,-113.27758 358.18131,-117.59144 344.68051,-107.12632 C 331.17971,-96.661202 319.35652,-77.887895 313.96419,-67.422777 C 320.55482,-84.278808 325.42789,-106.56712 326.30664,-118.15065 C 327.20709,-130.10213 325.21452,-141.58574 315.04265,-122.30474 C 309.69026,-112.15917 305.53617,-99.297455 301.06253,-76.010565 C 301.46196,-103.37166 300.74298,-116.95235 298.10673,-131.01236 C 295.38393,-145.53397 291.96827,-154.35266 287.7215,-133.96816 C 284.12661,-116.79258 284.92547,-94.184724 285.66863,-76.96545 C 281.48348,-93.623057 272.76576,-117.29853 266.34219,-128.03508 C 259.79268,-138.98211 256.51655,-136.55651 257.62447,-120.78561 C 258.71338,-105.28547 266.80101,-73.893497 273.63845,-57.921305 C 261.8383,-77.009145 248.01795,-93.62552 235.71544,-102.65268 C 223.10324,-111.90709 222.48984,-107.05159 227.88658,-95.702567 C 233.31885,-84.278808 258.00375,-54.640949 263.11648,-50.966175 C 246.89954,-64.387092 227.73517,-75.044955 213.82657,-80.204603 C 198.9677,-85.716765 192.89633,-83.959264 204.63963,-71.816528 C 214.85098,-61.257857 249.85534,-37.944689 265.55302,-32.83196 C 246.81966,-36.346961 209.52847,-38.614664 195.45269,-36.586619 C 174.13034,-33.525997 175.30556,-27.511951 190.41985,-23.325475 C 205.90375,-19.036621 232.4401,-15.336835 269.66717,-19.291211 C 243.6242,-12.061492 224.43256,-4.4104197 207.83509,6.472157 C 191.52998,17.163036 191.65095,21.771025 213.66679,18.135571 C 234.56187,14.672626 245.86102,8.7089766 271.10513,-4.6719999 C 252.57148,12.623409 236.749,31.395461 229.72396,46.495248 C 222.77385,61.434008 221.49024,74.301152 243.06499,53.525253 C 261.86351,35.422807 277.33627,12.223977 283.04815,2.2381759 C 273.4331,27.780066 268.10338,51.787485 268.02675,66.346324 C 267.9284,85.033133 272.04326,86.894667 280.71412,66.543022 C 287.04588,51.681534 286.51687,50.019937 291.72951,28.775967 C 293.17703,55.887155 294.75317,66.704314 298.61413,80.411085 C 302.82625,95.364504 308.04824,101.41224 311.3015,79.673213 C 313.98333,61.752675 306.79898,18.872105 301.67429,-0.61910492 C 310.96875,29.013408 322.03688,45.984536 334.89699,60.952871 C 347.79227,75.962131 351.6056,70.450509 345.43807,53.468694 C 337.74309,32.281139 320.87736,7.087968 312.33909,-3.5058112 C 332.57796,13.201793 357.04049,30.452463 372.42323,37.340855 C 388.87631,44.70855 397.19474,43.243859 379.9074,25.640263 C 364.60451,10.057436 324.56674,-11.991378 310.65252,-18.316024"
         style="fill:white;fill-rule:evenodd;stroke:black;stroke-width:0.25;stroke-linecap:butt;stroke-linejoin:miter;stroke-miterlimit:4;stroke-dasharray:none;stroke-opacity:1" />
      <path
         transform="matrix(0.201681,0,0,0.208614,164.7009,-162.4477)"
         d="M 727.98829 670.15741 A 85.045357 83.684631 0 1 1  557.89758,670.15741 A 85.045357 83.684631 0 1 1  727.98829 670.15741 z"
         sodipodi:ry="83.684631"
         sodipodi:rx="85.045357"
         sodipodi:cy="670.15741"
         sodipodi:cx="642.94293"
         id="path7313"
         style="fill:#fc0;fill-opacity:1;stroke:black;stroke-width:1.21880937;stroke-miterlimit:4;stroke-dasharray:none;stroke-opacity:1;display:inline"
         sodipodi:type="arc" />
    </g>
    <g
       style="display:inline;opacity:0.3"
       id="g7301"
       transform="translate(392.257,49.11242)">
      <path
         sodipodi:nodetypes="cssc"
         id="path5522"
         d="M 310.50317,-28.488414 C 342.20408,-38.692926 385.78237,-38.358352 401.59101,-35.096252 C 417.14244,-31.887228 415.30857,-27.317401 400.00179,-22.800649 C 384.47293,-18.218363 350.81937,-12.763425 311.50689,-20.374988"
         style="fill:white;fill-rule:evenodd;stroke:black;stroke-width:0.25;stroke-linecap:butt;stroke-linejoin:miter;stroke-miterlimit:4;stroke-dasharray:none;stroke-opacity:1" />
      <path
         sodipodi:nodetypes="cssc"
         id="path5524"
         d="M 310.24947,-29.157183 C 342.12415,-41.859124 373.61753,-65.832562 384.94326,-79.245964 C 395.24681,-91.448757 393.36461,-93.812228 375.75633,-88.03347 C 358.91793,-82.507374 329.50209,-59.75368 318.83726,-50.486856 C 335.97289,-67.74232 349.79324,-86.755288 354.90597,-100.01643 C 360.0187,-113.27758 358.18131,-117.59144 344.68051,-107.12632 C 331.17971,-96.661202 319.35652,-77.887895 313.96419,-67.422777 C 320.55482,-84.278808 325.42789,-106.56712 326.30664,-118.15065 C 327.20709,-130.10213 325.21452,-141.58574 315.04265,-122.30474 C 309.69026,-112.15917 305.53617,-99.297455 301.06253,-76.010565 C 301.46196,-103.37166 300.74298,-116.95235 298.10673,-131.01236 C 295.38393,-145.53397 291.96827,-154.35266 287.7215,-133.96816 C 284.12661,-116.79258 284.92547,-94.184724 285.66863,-76.96545 C 281.48348,-93.623057 272.76576,-117.29853 266.34219,-128.03508 C 259.79268,-138.98211 256.51655,-136.55651 257.62447,-120.78561 C 258.71338,-105.28547 266.80101,-73.893497 273.63845,-57.921305 C 261.8383,-77.009145 248.01795,-93.62552 235.71544,-102.65268 C 223.10324,-111.90709 222.48984,-107.05159 227.88658,-95.702567 C 233.31885,-84.278808 258.00375,-54.640949 263.11648,-50.966175 C 246.89954,-64.387092 227.73517,-75.044955 213.82657,-80.204603 C 198.9677,-85.716765 192.89633,-83.959264 204.63963,-71.816528 C 214.85098,-61.257857 249.85534,-37.944689 265.55302,-32.83196 C 246.81966,-36.346961 209.52847,-38.614664 195.45269,-36.586619 C 174.13034,-33.525997 175.30556,-27.511951 190.41985,-23.325475 C 205.90375,-19.036621 232.4401,-15.336835 269.66717,-19.291211 C 243.6242,-12.061492 224.43256,-4.4104197 207.83509,6.472157 C 191.52998,17.163036 191.65095,21.771025 213.66679,18.135571 C 234.56187,14.672626 245.86102,8.7089766 271.10513,-4.6719999 C 252.57148,12.623409 236.749,31.395461 229.72396,46.495248 C 222.77385,61.434008 221.49024,74.301152 243.06499,53.525253 C 261.86351,35.422807 277.33627,12.223977 283.04815,2.2381759 C 273.4331,27.780066 268.10338,51.787485 268.02675,66.346324 C 267.9284,85.033133 272.04326,86.894667 280.71412,66.543022 C 287.04588,51.681534 286.51687,50.019937 291.72951,28.775967 C 293.17703,55.887155 294.75317,66.704314 298.61413,80.411085 C 302.82625,95.364504 308.04824,101.41224 311.3015,79.673213 C 313.98333,61.752675 306.79898,18.872105 301.67429,-0.61910492 C 310.96875,29.013408 322.03688,45.984536 334.89699,60.952871 C 347.79227,75.962131 351.6056,70.450509 345.43807,53.468694 C 337.74309,32.281139 320.87736,7.087968 312.33909,-3.5058112 C 332.57796,13.201793 357.04049,30.452463 372.42323,37.340855 C 388.87631,44.70855 397.19474,43.243859 379.9074,25.640263 C 364.60451,10.057436 324.56674,-11.991378 310.65252,-18.316024"
         style="fill:white;fill-rule:evenodd;stroke:black;stroke-width:0.25;stroke-linecap:butt;stroke-linejoin:miter;stroke-miterlimit:4;stroke-dasharray:none;stroke-opacity:1" />
      <path
         transform="matrix(0.201681,0,0,0.208614,164.7009,-162.4477)"
         d="M 727.98829 670.15741 A 85.045357 83.684631 0 1 1  557.89758,670.15741 A 85.045357 83.684631 0 1 1  727.98829 670.15741 z"
         sodipodi:ry="83.684631"
         sodipodi:rx="85.045357"
         sodipodi:cy="670.15741"
         sodipodi:cx="642.94293"
         id="path5526"
         style="fill:#fc0;fill-opacity:1;stroke:black;stroke-width:1.21880937;stroke-miterlimit:4;stroke-dasharray:none;stroke-opacity:1;display:inline"
         sodipodi:type="arc" />
    </g>
  </g>
  <g
     inkscape:groupmode="layer"
     id="layer2"
     inkscape:label="Logo"
     style="display:inline">
    <g
       id="g5510">
      <path
         sodipodi:nodetypes="cssc"
         id="path1987"
         d="M 54.894661,49.18142 C 65.461099,45.780087 79.986464,45.891606 85.255746,46.978918 C 90.439295,48.048539 89.828035,49.571738 84.726033,51.077246 C 79.550007,52.604598 68.332716,54.422819 55.229218,51.885759"
         style="fill:white;fill-rule:evenodd;stroke:black;stroke-width:0.05;stroke-linecap:butt;stroke-linejoin:miter;stroke-miterlimit:4;stroke-dasharray:none;stroke-opacity:1" />
      <path
         sodipodi:nodetypes="cssc"
         id="path6470"
         d="M 54.810097,48.958508 C 65.434455,44.724741 75.93172,36.733997 79.706776,32.263088 C 83.14112,28.195695 82.51375,27.407911 76.644618,29.334067 C 71.0321,31.176006 61.227316,38.760189 57.672549,41.848975 C 63.38414,36.097443 67.990692,29.760106 69.694849,25.339947 C 71.399007,20.919788 70.786575,19.481905 66.286534,22.970103 C 61.786493,26.458301 57.845628,32.715755 56.048274,36.203952 C 58.24504,30.585558 59.869315,23.156495 60.162217,19.295513 C 60.462353,15.311885 59.798196,11.484209 56.407745,17.910885 C 54.623705,21.292573 53.239077,25.579594 51.747939,33.3415 C 51.881076,24.221594 51.641429,19.694925 50.762723,15.008491 C 49.855167,10.168198 48.716672,7.2287829 47.301152,14.023275 C 46.102916,19.74818 46.369191,27.283752 46.616896,33.023221 C 45.221916,27.470965 42.316157,19.579539 40.175073,16.000869 C 37.992014,12.352041 36.900025,13.160534 37.269315,18.417237 C 37.632265,23.583691 40.328007,34.047154 42.607039,39.37095 C 38.673854,33.008657 34.067303,27.470144 29.966673,24.461241 C 25.762818,21.376594 25.55836,22.995014 27.357182,26.77783 C 29.167849,30.585558 37.395736,40.464347 39.099893,41.68921 C 33.694518,37.215796 27.306717,33.663354 22.670748,31.943558 C 17.71804,30.106263 15.694352,30.692067 19.60859,34.739442 C 23.012201,38.258822 34.679734,46.029487 39.912031,47.733644 C 33.667891,46.562036 21.238121,45.806173 16.546431,46.482154 C 9.439337,47.50231 9.83106,49.506891 14.868901,50.902313 C 20.029941,52.331859 28.874947,53.565059 41.283345,52.247 C 32.602792,54.656785 26.205901,57.207014 20.673688,60.834357 C 15.238926,64.397804 15.279246,65.933723 22.617493,64.721966 C 29.582168,63.567709 33.348361,61.579926 41.76264,57.119825 C 35.585068,62.884671 30.311174,69.141707 27.969613,74.174716 C 25.653024,79.154052 25.225176,83.442884 32.4164,76.517933 C 38.682256,70.484088 43.839582,62.751534 45.743446,59.423101 C 42.538593,67.936636 40.762107,75.938706 40.736566,80.791408 C 40.703785,87.020031 42.075337,87.640511 44.965478,80.856971 C 47.075958,75.903391 46.899631,75.349553 48.637089,68.268586 C 49.11957,77.305194 49.644925,80.910732 50.931848,85.479426 C 52.335815,90.463648 54.076392,92.47946 55.160758,85.233481 C 56.054654,79.260269 53.659991,64.967465 51.951849,58.470722 C 55.049847,68.347729 58.739038,74.004487 63.025526,78.993681 C 67.323736,83.996516 68.59478,82.159401 66.539041,76.499081 C 63.974175,69.436918 58.352551,61.039617 55.506604,57.508535 C 62.252553,63.077456 70.406318,68.82739 75.53364,71.123405 C 81.017726,73.57918 83.790397,73.090974 78.02824,67.223404 C 72.927533,62.02939 59.582281,54.680155 54.944442,52.572046"
         style="fill:white;fill-rule:evenodd;stroke:black;stroke-width:0.05;stroke-linecap:butt;stroke-linejoin:miter;stroke-miterlimit:4;stroke-dasharray:none;stroke-opacity:1" />
      <path
         transform="matrix(6.722376e-2,0,0,6.953456e-2,6.296347,4.530579)"
         d="M 727.98829 670.15741 A 85.045357 83.684631 0 1 1  557.89758,670.15741 A 85.045357 83.684631 0 1 1  727.98829 670.15741 z"
         sodipodi:ry="83.684631"
         sodipodi:rx="85.045357"
         sodipodi:cy="670.15741"
         sodipodi:cx="642.94293"
         id="path1985"
         style="fill:#fc0;fill-opacity:1;stroke:black;stroke-width:3.65660667;stroke-miterlimit:4;stroke-dasharray:none;stroke-opacity:1;display:inline"
         sodipodi:type="arc" />
    </g>
    <text
       xml:space="preserve"
       style="font-size:80px;fill:white;font-family:Dael Calligraphy"
       x="104"
       y="68"
       id="text7335"><tspan
         sodipodi:role="line"
         x="104"
         y="68"
         id="tspan7339">relax shiatsu</tspan></text>
  </g>
</svg>
